<?xml version="1.0" encoding="UTF-8"?>
<svg xmlns="http://www.w3.org/2000/svg" viewBox="0 0 528.1 355.25" role="img" aria-labelledby="title desc">
  <title id="title">ChessView logo</title>
  <desc id="desc">ChessView brand mark built from the approved Illustrator SVG: chess knight inside an eye shape with board and standings motifs.</desc>
<defs>
    <style>
      .cls-1 {
        fill: #BA9B4A;
      }

      .cls-2 {
        fill: #FDFCFD;
      }

      .cls-3 {
        fill: #032044;
      }

      .cls-4 {
        fill: #FFFFFF;
        opacity: .22;
      }
    </style>
  </defs>
  <g>
    <path class="cls-4" d="M123.57,217.01v51c-23.21-14.86-40.74-30.6-59-51,19.65-.04,39.35.05,59,0Z"/>
    <path class="cls-4" d="M122.57,99.01l.96,55.31c.2.66,2.26,1.69,2.54,1.69h42.5l2.01,61.01c-15.65.02-31.35-.04-47.01,0,0-20.32,0-40.69,0-61.01-20.46-.59-41.1.81-61.55,0-1.93-.08-4.01,1.03-3.45-2,20.15-22.94,37.8-38.9,64-55Z"/>
  </g>
  <path class="cls-2" d="M289.9.43c1.99,1.28,3.06,24.1,4.6,27.89,9.24,4.45,29.4,9.6,33.01,19.99,1.05,3.03.65,6.68,2.48,9.52l45.79,52.21c4.59,17.52-8.05,39.86-27.99,36.98-13.01-1.88-11.46-9.7-18.84-15.15-2.11-1.56-11.64-6.22-14.1-6.89-7.67-2.09-13.52,2.79-21.29,2.34-12.49-.73-25.18-9.64-29.71-21.34l-3.81-9.67c-1.42,13.28,3.73,25.26,15.08,32.41,2.08,1.31,8.4,3.43,8.72,3.78.61.69,1.27,8.45,1.9,10.6,6.1,20.94,25.81,31.6,37.11,48.9,13.14,20.13,15.68,41.41,8.19,64.3,13.57-1.21,14.11,5.9,12.86,17.37l-147.16,1.44c-4.01-1.18-4.05-15.09-.44-17.04,4.74-2.56,4.9.38,9.16-5.84,18.85-27.54,1.47-60.86-.4-90.42-1.16-18.34,1.42-37.9,6.49-55.49,3.24-11.21,8.57-21.13,12.49-32-2.65.12-4.35,3.75-5.81,5.68-19.54,25.67-24.25,61.17-21.17,92.81,1.49,15.29,6.17,30.24,6.99,45.51-4.51.77-8.44-2.37-12.59-2.92-3.49-.46-14.3,1.23-15.27-1.73l-2.13-56.85c1.39-51.39,23.2-109.61,75.78-127.22,3.43-1.15,13.39-2.62,15.17-3.83.87-.59,9.31-14.04,12.01-16.99,2.38-2.59,9.22-10.72,12.91-8.35ZM316.01,61.31l-11.99.49c5.6,5.28,9.95,10.51,11.99-.49Z"/>
  <path class="cls-2" d="M199.01,42.31l-20.04,28.45c-60.5,18.42-112.67,59.03-147.79,111.21,32.65,49.76,80.39,90.27,136.41,111.3.82,1.14-2.65,7.35-3.28,9.84-1.02,3.99-1.57,8.07-1.3,12.21-.66.65-11.78-3.1-13.68-3.81-52.44-19.64-103.64-62.14-136.13-107.87C10.77,200.2-.26,184.61,0,181.86c.22-2.21,10.1-15.93,12.19-18.88C55.56,101.91,124.66,55.26,199.01,42.31Z"/>
  <path class="cls-2" d="M373.02,315.3c1.41-8.42-2.82-15.18-3.95-22.94,53.96-20.6,101.71-61.37,131.74-110.37-4.57-6.4-9-12.94-13.83-19.15-31.31-40.29-74.96-72.76-122.36-89.64l-20.6-28.89c67.21,14.02,129.18,58.33,168.81,113.68,2.52,3.52,14.83,21.24,15.21,23.9.17,1.19.04,2.31-.55,3.37-35.38,58.58-89.83,106.53-154.46,130.04Z"/>
  <path class="cls-2" d="M177.51,321.3c-.88-.27-1.33-1.59-1.5-2.5-2.41-13.2,7-32.34,21.45-33.55l144.84.25c10.1,2.3,18.92,19.4,18.79,29.29-.02,1.68-.49,6.5-2.58,6.5h-181Z"/>
  <path class="cls-2" d="M167.75,330.54l198.77-.24c12.86.54,10.99,13.47,8.57,22.57-3.51.22-7.04,1.24-10.53,1.47-30.7,2.07-63.43-.05-94,0-35.69.06-71.37-.14-107.05-.03-4.48-.86-3.8-11.53-3.22-15.25.76-4.85,2.38-7.55,7.47-8.53Z"/>
  <path class="cls-1" d="M428.01,245.3v-97h21.5c.11,0,1.5,1.39,1.5,1.5v78c-7.24,5.93-14.46,13.87-23,17.5Z"/>
  <path class="cls-1" d="M417.01,185.3c-.32.98,1,2.17,1,2.5v66c-7.16,4.77-14.75,11.36-23,13.5v-82h22Z"/>
  <path class="cls-1" d="M384.01,218.3l.81,54.31c-.24,1.09-1.04,1.54-1.87,2.13-.97.69-18.43,8.58-19.49,8.57-.94-.01-2.45-.96-2.45-1.51v-62c0-.11,1.39-1.5,1.5-1.5h21.5Z"/>
  <path class="cls-3" d="M316.01,61.31c-2.04,11-6.38,5.77-11.99.49l11.99-.49Z"/>
</svg>
